<svg width="131" height="147" viewBox="0 0 131 147" xmlns="http://www.w3.org/2000/svg"><g fill="none" fill-rule="evenodd"><path d="M31.386 10.28l.09-.052c-7.553 4.355-14.426 6.793-21.008 7.456L.002 18.737v10.59c0 51.308 20.012 89.45 59.48 113.366l5.915 3.585h.157l5.916-3.585c38.708-23.457 58.7-60.598 59.455-110.422V18.737l-10.443-1.05c-6.582-.663-13.453-3.1-21.008-7.456C88.516 3.777 76.746.357 65.476.357c-11.27 0-23.06 3.43-34.09 9.923" fill="#D8D8D8"/><path d="M33.83 14.49l.053-.03c-8.158 4.702-15.66 7.343-22.933 8.075l-6.105.615v6.178c0 49.478 19.222 86.214 57.134 109.187l3.494 2.12 3.496-2.12c37.913-22.973 57.136-59.71 57.136-109.187V23.15L120 22.535c-7.272-.732-14.774-3.373-22.932-8.075-10.238-6.026-21.18-9.227-31.592-9.227-10.412 0-21.355 3.2-31.646 9.258" fill="#FFF"/><path d="M65.476 12.06c9.686 0 19.34 3.094 28.223 8.323 8.95 5.16 17.424 8.12 25.624 8.945 0 47.13-17.973 81.598-53.85 103.34-35.878-21.742-53.85-56.21-53.85-103.34 8.2-.826 16.673-3.785 25.626-8.945 8.885-5.23 18.538-8.324 28.225-8.324" fill="#D8D8D8"/></g></svg>