<svg width="104" height="116" viewBox="0 0 104 116" xmlns="http://www.w3.org/2000/svg"><g fill="none" fill-rule="evenodd"><path d="M.96 116l1.3-24.644C10.09 79.34 17.41 73.83 17.41 73.83l16.38-9.526c1.837-1.255 3.946-2.092 6.208-2.355h25.75c2.253.26 4.36 1.1 6.21 2.365l13.518 7.85s10.364 7.416 17.995 19.19L103.38 116H-6.11.96z" fill="#C7C7C7"/><path d="M71.526 67.593c0 5.788-11.015 5.99-18.402 13.392-7.346-7.345-18.42-7.604-18.42-13.392 0-5.788 8.24-7.575 18.42-7.575 10.162 0 18.402 1.787 18.402 7.575" fill="#B5B5B6"/><path d="M35.395 65.048c.535.847 1.415 1.565 2.507 2.24 3.31-1.918 8.887-2.61 15.22-2.61 6.323 0 11.896.692 15.21 2.603 1.095-.666 1.977-1.38 2.516-2.23l.022-.03c-2.152-3.76-9.277-5-17.748-5-8.47 0-15.603 1.24-17.75 5l.023.03z" fill="#9B9B9B"/><path d="M53.123 76.324c-6.3-6.297-15.362-7.387-17.793-11.235-.41.733-.625 1.56-.625 2.5 0 5.79 11.072 6.05 18.418 13.394 7.387-7.4 18.403-7.604 18.403-13.393 0-.94-.22-1.765-.626-2.502-2.416 3.837-11.432 4.885-17.777 11.234" fill="#B6B6B6"/><path d="M70.9 65.088c-2.416 3.838-11.432 4.888-17.777 11.235v4.657c7.387-7.395 18.403-7.6 18.403-13.386 0-.944-.22-1.77-.626-2.506" fill="#B6B6B6"/><path d="M53.397 58.83v6.103c-.73-.006-1.4-.038-1.998-.09-3.31-.34-5.747-1.533-5.747-2.95 0-1.698 3.463-3.062 7.743-3.062m7.74 3.064c0 1.415-2.435 2.608-5.736 2.95-.614.053-1.277.082-2.003.088V58.83c4.276 0 7.74 1.366 7.74 3.064" fill="#DFB28B"/><path d="M74.977 30.063V24.43c.218-1.186.35-2.394.35-3.636C75.327 9.346 65.52.07 53.417.07 41.317.07 31.5 9.346 31.5 20.794c0 1.274.148 2.515.375 3.73 0 .197.034.398.04.596l-.058.004v4.93c-2.07.173-3.7 1.884-3.7 4v6.594a2.962 2.962 0 0 0 2.964 2.96c.874 0 1.653-.38 2.194-.978v8.236c0 .687.202 1.327.56 1.858 0 0 1.845 2.687 5.108 5.705v.046l-.18 2.33-.44 6.838c3.874 2.193 10.075 4 14.764 8.68.493-.515 1.036-.962 1.575-1.41.535-.444 1.088-.85 1.643-1.238.065-.047.13-.092.175-.136a30.36 30.36 0 0 1 1.736-1.096.765.765 0 0 1 .12-.07c2.938-1.735 5.907-2.92 8.295-4.112.066-.037.143-.075.214-.112.545-.27 1.057-.553 1.525-.835l-.418-6.507-.18-2.33-.007-.04c3.206-2.962 5.038-5.6 5.115-5.714.352-.535.553-1.17.553-1.858V42.63c.54.6 1.322.98 2.206.98a2.958 2.958 0 0 0 2.957-2.96v-6.595c0-2.097-1.615-3.804-3.657-3.99" fill="#C7C7C7"/><path d="M41.15 44.08h.01c.824 1.645 1.486 3.528 1.938 5.568.704 3.125.787 6.137.36 8.672l-.11.803c0 1.785.942 3.362 2.348 4.25-7.398-4.145-11.824-10.65-11.824-10.65l-.002.002a3.337 3.337 0 0 1-.558-1.857v-11.33a7.763 7.763 0 0 0 3.85 2.16l.716.096a4.336 4.336 0 0 1 3.27 2.287" fill="#C7C7C7"/><path d="M73.472 32.91v6.62h-.057a7.672 7.672 0 0 1-3.856 2.167l-.703.097a4.356 4.356 0 0 0-3.283 2.286c.41-.843.865-1.615 1.35-2.325L68.5 38.88a6.528 6.528 0 0 0 1.322-3.962c0-3.15-2.2-5.796-5.14-6.483V18.073c0-6.613 2.648-6.805 4.393-8.672l2.38.62c.297.523.57 6.54.81 7.094 1.207 2.24-.513 15.136 1.207 15.797" fill="#B6B6B6"/><path d="M56.518 44.015c.036.128.05.272.05.41 0 1.098-1 1.983-2.255 1.983h-.916v-1.982c1.125 0 2.187-.148 3.12-.41" fill="#CF9E76"/><path d="M53.397 44.426v1.982h-.934c-1.234 0-2.248-.885-2.248-1.982 0-.14.023-.283.057-.41.936.262 2 .41 3.125.41" fill="#CF9E76"/><path d="M72.918 52.725c-.118.174-4.633 6.718-12.11 10.806v-.015a5.05 5.05 0 0 0 2.57-4.39l-.097-.804c-.433-2.534-.352-5.547.35-8.672.457-2.04 1.124-3.922 1.946-5.567a4.354 4.354 0 0 1 3.283-2.285l.7-.096a7.672 7.672 0 0 0 3.855-2.17h.057v11.338c0 .685-.2 1.323-.552 1.856v.002z" fill="#B6B6B6"/><path d="M68.407 57.878c-4.066 3.224-7.35 7.11-15.01 7.054-8.34-.067-14.416-6.503-14.416-6.503v.045l-.18 2.332-.015.2C42.373 64.433 50.24 70.733 59.97 71.5c2.397-1.273 4.753-2.256 6.7-3.24.066-.036.143-.072.216-.11.543-.27 1.054-.554 1.522-.836l-.416-6.507.417-2.93zM34.625 10.166c4.734 1.318 11.288 2.14 18.518 2.14 7.48 0 14.21-.877 18.973-2.277C68.27 4.056 61.346.07 53.42.07c-7.986 0-14.965 4.053-18.795 10.096" fill="#B6B6B6"/><path d="M31.5 20.794c0 1.275.146 2.515.373 3.73 0 .196.034.398.04.595l-.056.002v4.93c-.398.035-.762.173-1.127.313v3.972h3.974V21.984c6.258-6.254 4.8-13.21 4.8-13.21l-.72-3.343h-.04c-4.44 3.796-7.244 9.257-7.244 15.365m44.01.06c0 1.278-.13 2.524-.368 3.74 0 .195-.025.393-.033.594h.047v4.933c.405.034.762.17 1.12.312v3.97H72.32V22.052C66.06 15.796 67.517 8.84 67.517 8.84l.713-3.34h.04c4.444 3.793 7.24 9.26 7.24 15.356" fill="#B6B6B6"/><path d="M78.633 34.052v6.597a2.956 2.956 0 0 1-2.956 2.957c-.884 0-1.668-.38-2.205-.98v-12.44a4.028 4.028 0 0 1 5.16 3.867" fill="#B6B6B6"/><path d="M33.312 38.665v3.966c-.54.6-1.32.98-2.19.98a2.962 2.962 0 0 1-2.966-2.96v-6.597a4.027 4.027 0 0 1 5.155-3.868v8.482z" fill="#C7C7C7"/><path d="M56.516 44.015c-.938.263-1.994.41-3.123.41-1.12 0-2.185-.147-3.12-.41a1.592 1.592 0 0 0-.058.41c0 1.098 1.008 1.983 2.248 1.983h1.85c1.25 0 2.256-.885 2.256-1.982 0-.14-.017-.283-.055-.41" fill="#B6B6B6"/></g></svg>